<?xml version="1.0" encoding="UTF-8" standalone="no"?>
<svg width="10020.0" height="4029.0758412570403" viewBox="-1.5 -72.01408311032397 250.5 100.72689603142601" xmlns="http://www.w3.org/2000/svg">
<g transform="scale(1, -1) translate(0, --43.30127018922193)">
  <rect x="-1.5" y="-28.712812921102035" width="250.5" height="100.72689603142601" fill="white" />
  <path d="M 0.000 0.000 L 17.000 0.000 L 25.000 13.856 L 32.500 0.866 L 39.500 12.990 L 46.000 1.732 L 34.000 1.732 L 39.500 -7.794 L 29.500 -7.794 L 25.000 -15.588 L 17.000 -15.588 L 13.500 -9.526 L 7.500 -9.526 L 5.000 -5.196 L 1.000 -5.196 L -0.500 -2.598 L 0.500 -0.866 Z" fill="none" stroke="black" stroke-width="0.1" />
  <path d="M 51.500 0.000 L 76.500 0.000 L 88.500 20.785 L 100.000 0.866 L 111.000 19.919 L 121.500 1.732 L 101.500 1.732 L 111.000 -14.722 L 120.000 0.866 L 128.500 -13.856 L 112.500 -13.856 L 120.000 -26.847 L 106.000 -26.847 L 99.500 -38.105 L 87.500 -38.105 L 82.000 -28.579 L 72.000 -28.579 L 67.500 -20.785 L 59.500 -20.785 L 56.000 -14.722 L 59.000 -9.526 L 56.500 -5.196 L 52.500 -5.196 L 51.000 -2.598 L 52.000 -0.866 Z" fill="none" stroke="black" stroke-width="0.1" />
  <path d="M 134.000 0.000 L 167.000 0.000 L 183.000 27.713 L 198.500 0.866 L 213.500 26.847 L 228.000 1.732 L 200.000 1.732 L 213.500 -21.651 L 226.500 0.866 L 239.000 -20.785 L 215.000 -20.785 L 226.500 -40.703 L 237.500 -21.651 L 248.000 -39.837 L 228.000 -39.837 L 237.500 -56.292 L 219.500 -56.292 L 211.000 -71.014 L 195.000 -71.014 L 187.500 -58.024 L 173.500 -58.024 L 167.000 -46.765 L 155.000 -46.765 L 149.500 -37.239 L 154.500 -28.579 L 150.000 -20.785 L 142.000 -20.785 L 138.500 -14.722 L 141.500 -9.526 L 139.000 -5.196 L 135.000 -5.196 L 133.500 -2.598 L 134.500 -0.866 Z" fill="none" stroke="black" stroke-width="0.1" />
</g>
<text x="-1.0" y="-71.01408311032397" font-family="Arial" font-size="0.8" fill="black">ABF | BFDF | DEDCD | CDCB | C</text>
</svg>